<?xml version="1.0" standalone="no"?>
<!DOCTYPE svg PUBLIC "-//W3C//DTD SVG 20010904//EN"
 "http://www.w3.org/TR/2001/REC-SVG-20010904/DTD/svg10.dtd">
<svg version="1.0" xmlns="http://www.w3.org/2000/svg"
 width="455.000000pt" height="455.000000pt" viewBox="0 0 455.000000 455.000000"
 preserveAspectRatio="xMidYMid meet">

<g transform="translate(0.000000,455.000000) scale(0.100000,-0.100000)"
fill="#000000" stroke="none">
<path d="M1080 4395 c-308 -56 -589 -262 -743 -545 -59 -108 -106 -275 -122
-437 l-6 -63 478 -1 c334 -1 460 -4 418 -11 -390 -60 -615 -167 -694 -331 -40
-83 -47 -139 -27 -218 46 -178 237 -336 512 -422 45 -14 118 -32 163 -39 44
-7 81 -16 81 -20 0 -4 -3 -7 -7 -7 -5 1 -212 1 -460 0 l-453 -1 0 -39 c0 -105
56 -314 115 -431 102 -202 295 -387 506 -484 71 -33 184 -66 279 -82 l45 -7
-72 -13 c-356 -61 -675 -322 -800 -654 -42 -112 -63 -210 -70 -328 l-6 -92
489 0 c534 0 637 8 774 55 241 82 431 227 570 434 92 137 147 310 157 494 l6
107 -444 1 c-244 1 -430 4 -414 6 275 38 551 219 702 461 91 146 143 306 158
490 l7 82 -443 1 c-426 0 -561 8 -420 22 34 4 104 21 154 37 389 131 647 446
705 860 l17 118 225 3 c295 5 629 -3 575 -14 -342 -68 -634 -328 -758 -674
-25 -68 -57 -245 -57 -312 l0 -31 438 -1 c240 -1 448 -5 462 -9 l25 -8 -26 -1
c-51 -2 -215 -49 -290 -84 -162 -74 -325 -207 -417 -340 -118 -171 -192 -383
-192 -549 l0 -58 448 -1 c252 -1 434 -5 417 -9 -16 -5 -68 -18 -115 -29 -129
-32 -276 -109 -362 -189 -86 -81 -213 -249 -268 -353 -57 -110 -107 -267 -120
-382 -6 -54 -9 -105 -6 -114 9 -22 1035 -13 1141 10 225 50 411 153 566 314
127 131 213 280 263 453 26 91 53 276 42 287 -4 4 -212 9 -464 12 -427 4 -451
5 -368 17 164 25 334 83 466 160 73 42 155 130 187 200 21 47 25 66 21 132 -4
94 -29 149 -101 228 -123 135 -351 249 -579 288 -44 8 -81 16 -83 18 -3 2 205
2 460 0 l465 -5 0 59 c0 33 -9 100 -19 149 -89 427 -433 756 -866 826 l-80 13
75 12 c215 37 442 160 591 321 166 178 276 422 295 654 l7 80 -569 -3 c-550
-4 -572 -5 -647 -26 -327 -91 -555 -276 -698 -567 -56 -115 -83 -210 -99 -357
-6 -56 -12 -103 -13 -104 -1 -1 -204 -4 -452 -8 -415 -6 -498 -2 -380 18 58
10 159 44 243 82 300 136 529 437 587 773 8 46 15 108 15 137 l0 54 -532 -1
c-401 -1 -551 -4 -608 -14z"/>
</g>
</svg>
